<?xml version="1.0" encoding="utf-8"?>
<!-- Generator: Adobe Illustrator 24.0.2, SVG Export Plug-In . SVG Version: 6.00 Build 0)  -->
<svg version="1.1" baseProfile="tiny" id="Capa_1" xmlns="http://www.w3.org/2000/svg" xmlns:xlink="http://www.w3.org/1999/xlink"
	 x="0px" y="0px" viewBox="0 0 131.5 131.5" xml:space="preserve">
<rect fill="#FFFFFF" width="131.5" height="131.5"/>
<path fill="none" stroke="#000000" stroke-miterlimit="10" d="M97.6,54"/>
<path fill="#010202" d="M111.2,115c-12.2,11-25.9,8.4-31.4-6.1c-1.1-2.9-1.8-6-2.6-9.1c-0.8-3.3-1.1-5-2.1-8.9
	c-1.7-6.4-2.3-7.4-3.1-8.2c-2.4-2.3-5.6-2.5-7-2.6c-1.8-0.1-4.9-0.3-6.9,1.6c-0.5,0.5-1.1,1.3-2.2,7.5c-0.8,4.6-0.6,5.3-1.2,7.4
	c-0.5,1.8-1.4,4.4-3.4,7.4c-0.3,0-0.7-0.1-1.1-0.1c-1.7-0.2-3.3-0.2-4.8,0c1.1-0.4,2.6-1.1,3.6-2.5c1.3-1.9,1-4,1-6
	c-0.2-7.9,3.5-15.8,1.9-17.2c-0.1-0.1-0.5-0.4-1.1-1c-0.7-0.6-1-0.9-1.3-1.3c-0.3-0.3-0.7-0.9-1-1.7c-0.1-0.4-0.4-1.1-0.2-2.1
	c0-0.2,0.2-1.3,1.2-2.1c0.6-0.6,1-0.5,1.4-1.1c0.3-0.5,0.4-1,0.5-1.4c0.2-0.8,0.1-1.4,0.1-1.5c-0.2-3,4.2-20.3,6.5-24.4
	c0.7-1.2,1.7-2.2,1.7-2.2c0.6-0.6,1.1-1,1.5-1.3c-1.1,4.7-2.2,9-3.1,13.4c-0.6,2.9-0.9,5.1-1,7.9c-0.1,4.3-0.1,6.5,1,8.2
	c2.2,3.4,5.6,1.8,10.9,6.4c1.1,1,1.8,1.8,3.2,2.2c2.9,0.8,5.7-0.9,6.8-1.5c14.7-7.2,19-26.9,7.8-37c-4-3.6-9.4-5.3-14.6-6.8
	c-9.1,0.6-18.3,1.2-27.4,1.9c8.6-3.8,21.6-7.6,35.6-4c2.1,0.5,4,1.2,4,1.2c3,1.1,5.3,2.5,7,3.5c2.3,1.7,6,4.9,7.7,10
	c0.9,2.8,0.9,5.3,1,7.6c0,4.8-1,8.3-1.3,9.3c-0.6,1.9-1.4,4.5-3.2,7.1c-3.5,5-10.7,9.2-15.1,10.7c-0.6,0.2-2.2,0.7-2.9,2.2
	c-0.7,1.4-0.2,3,0.1,3.8c3.4,9.8,5.3,14.6,5.9,15.9c6,14.9,10.7,17.3,25.8,13.1C109.9,113.9,110.6,114.5,111.2,115z"/>
<path fill="#D8191B" d="M51.6,30.2c-0.9-1.2-2.8-4.1-2.7-8.1c0.1-5,3.1-8.3,5-10.1c3.2-3.1,4.4-3.4,4.9-3.1c0.8,0.5-0.2,2.7-0.1,6.2
	c0.1,2.6,0.7,4.7,1.2,6c0.5,0.5,1.3,1.4,1.8,2.7c0.8,1.7,0.8,3.2,0.8,4.1C58.9,28.6,55.3,29.4,51.6,30.2z"/>
<path fill="#E52421" d="M114.4,68.4c0,3.4-0.2,39-0.3,41.1c0,0.3-0.1,1-0.1,1.3c-0.2,1.8-0.3,2.1-0.5,2.5c-0.2,0.3-0.5,0.7-1.1,1
	c-0.1,0.2-0.5,0.7-1.2,0.7c-1.1,0.1-2.1-0.9-2.1-1.7c0-0.5,0.4-0.8,0.7-1.1c1-1.1,1-2.7,0.9-4.4c-0.1-5.6,0.2-11.2-0.1-16.8
	c-0.2-5.3-0.1-10.7,0.1-16c0.3-7.7,1-11.4,0.8-19.1c-0.1-2.8-0.2-5.2-0.3-6.7c0-0.6,0.2-1.4,0.5-2.3c0.3-0.8,0.7-1.4,1-1.8
	c1.3,1.7,1.7,3.1,1.7,4.1c0.1,0.9-0.1,1.4-0.3,3.7c0,0.9,0,1.1-0.1,2.7c-0.1,3.7-0.2,4.1-0.2,5.8c0,1.1,0.1,2.6,0.3,4.5
	C114.6,66.1,114.7,66.5,114.4,68.4z"/>
<path fill="#E52D1F" d="M33.4,61.1c-0.4-0.2-0.8-0.3-1.1-0.5c-0.8-0.5-2.3-1.3-4.2-1.6c-8.6-1.7-17.3,5.9-17.7,10.3
	c-0.1,1.4,0.6,2.5,1.1,3.7c0.9,2.1,2.3,4.7-1.1,6.1c-1.1-4-4.2-7.6-2.6-12.3c1.9-5.3,5.1-9.4,10.9-10.8c0.4-0.3,0.8-0.7,1.3-1
	c3.9,0.2,7.9-0.2,11.3,2.5C32.3,58.6,33.8,59.3,33.4,61.1z"/>
<path fill="#020304" d="M67.5,28.4c5.9,0,7.8,0,8.4,1.1c0.4,0.8-0.1,1.8-0.5,2.5c-4.8-0.8-12.8-1.4-22.3,0.9
	c-7.8,1.9-13.8,5-17.6,7.5c-1.1,0.3-1.5-0.1-1.3-1.2c5-4.8,11.6-6.4,17.7-9c1.8-0.8,4-1.2,6.8-1.5C60.6,28.3,61,28.4,67.5,28.4z"/>
<path fill="#E52421" d="M114.4,68.4c0-0.8,0.1-1.7,0.1-2.5c4.8-1.9,7.7-6.5,7.6-11.9c-0.1-2.8,0-5.6,1.5-8.2
	C127.4,56.4,123.2,66.5,114.4,68.4z"/>
<path fill="#E52421" d="M30.5,104c-4.1-2.2-5.4-7.6-3.3-14.2c0.5,0.8,1.2,1.2,2.1,1.3c0.1,4.2,0.4,8.4,3.2,11.9
	C32.1,103.9,31.1,103.7,30.5,104z"/>
<path fill="#010202" d="M30.5,104c0.6-0.3,1.3-0.7,1.9-1c1.1,0.6,2.7,1.5,4.9,2c0.6,0.1,2.3,0.5,4,0.4c4.4-0.3,7.5-3.9,8.4-5
	c0.6,1.3,1.1,2.5,1.7,3.8c-4.4,4.8-9.7,3.7-15,2.3C34.3,105.9,32.4,104.8,30.5,104z"/>
<path fill="#E52421" d="M34.2,75.8c2.1-4.8,3.1-9.7,0-14.5c-0.3-1,0.2-1.4,1.2-1.2c1.4,1.9,2.9,4.9,2.8,8.4c0,2.8-1,5-2.2,7.9
	c-1,2.4-2.1,4.2-3,5.5c0.2-1.7,0.5-3.5,1-5.3C34,76.4,34.1,76.1,34.2,75.8z"/>
<path fill="#E52421" d="M34.2,75.8c0.1,0.5,0.2,1.1,0.3,1.6c-0.6,5-4.9,8.5-5.2,13.6c-1.5,0.9-2,0.2-2.1-1.3
	C28.1,84.4,31.6,80.4,34.2,75.8z"/>
<path fill="#E52421" d="M8.5,66.6c-1.8,4.5,3.2,8.1,1.9,12.5c-3.3-1.6-3.1-1.6-3.5-5.8c-0.3-2.8-0.5-5.5,0.6-8.1
	C8.6,65.1,8.8,65.7,8.5,66.6z"/>
<path fill="#E52421" d="M35.3,60.2c0.6,1.8,1.2,4.3,1.1,7.4c-0.2,7.3-4.3,12.4-5.8,14.1c0,0,0,0,0,0s3-3.8,4.1-8
	c0,0,1.5-5.7-1.4-11.6c-0.2-0.4-0.5-0.7-0.5-0.7c-0.2-0.3-0.5-0.5-0.6-0.6c0,0-0.7-0.8-1.7-2.1c-0.5-0.7-0.5-0.7-0.6-0.8
	c-1.6-1.4-4.2-1.6-6-1.6c-1.4,0-3,0.6-4-1.1C26.2,53.2,31.2,55.3,35.3,60.2z"/>
<path fill="#E52421" d="M8.5,66.6c-0.4-0.5-0.7-1-1.1-1.5c0.6-1.4,2.8-6.1,7.7-8.6c2.7-1.4,5.4-1.6,5.8-1.7c1.7-0.1,3.1,0,4.1,0.2
	c-1,0.1-2.3,0.4-3.8,0.9c-4,1.3-6.5,3.3-7.3,3.9C11.1,62.3,9.4,64.9,8.5,66.6z"/>
<path fill="#010202" d="M34.2,39.1c0.4,0.4,0.9,0.8,1.3,1.2c-0.8,0.6-1.7,1.2-2.6,1.9c-0.9,0.7-1.7,1.4-2.4,2.1
	c0.2-0.5,0.4-1,0.7-1.5C32.1,41.1,33.3,39.9,34.2,39.1z"/>
<path fill="#E3E2E3" d="M69.4,77.8c-4.2-0.4-7-0.5-9-0.4c-0.5,0-1.7,0.1-2.4-0.6c-0.6-0.6-0.6-1.5-0.6-2.3c0-1-0.1-1.8,0.4-2.4
	c1.1-1.4,5.2-0.4,7.8,1.4C67.7,74.8,68.8,76.6,69.4,77.8z"/>
<path fill="#E52421" d="M111.6,68.4c0-0.8-0.1-1.7-0.1-2.5c-5.4-1.9-8.7-6.5-8.6-11.9c0.1-2.8-0.1-5.6-1.7-8.2
	C97,56.4,101.7,66.5,111.6,68.4z"/>
<path fill="#E52421" d="M108.5,55"/>
<path fill="#D8191B" d="M87.3,31.4c0.8-1.1,3-4.5,2.7-9.1c-0.3-5.1-3.4-8.4-5.4-10.1c-3.5-3.1-4.8-3.4-5.3-3.1
	c-0.9,0.5,0.2,2.7,0.1,6.2c-0.1,2.6-0.8,4.7-1.4,6c-1.9,1.8-2.8,4-2.8,6.5c0.8,0.2,1.5,0.4,2.1,0.5c0.8,0.2,1.5,0.3,1.6,0.3
	C79.8,28.9,82.1,29.5,87.3,31.4z"/>
<path fill="#E3E2E3" d="M63.1,80.4"/>
<path fill="#FDFBFC" d="M51.6,71.1c-0.5-0.3-1.5,0-2,0.7c-0.8,1.1,0.1,2.7,0.2,2.9c0.7,1.2,1.9,1.6,2.2,1.7c0-0.2,0-0.6,0-1.1
	c0-0.2,0-1.4-0.1-2.8C51.8,71.4,51.8,71.2,51.6,71.1z"/>
<path fill="#090909" d="M51.8,77.1"/>
<path fill="#FDFBFC" d="M44.1,76.8"/>
<path fill="#090909" d="M-11,41.5"/>
<path fill="#010202" d="M-29,0"/>
</svg>
